<?xml version="1.0" encoding="UTF-8" ?>
<svg version="1.1" width="16" height="16" xmlns="http://www.w3.org/2000/svg" shape-rendering="crispEdges">
<rect x="0" y="0" width="1" height="1" fill="#D3A165" />
<rect x="1" y="0" width="1" height="1" fill="#D3A163" />
<rect x="2" y="0" width="1" height="1" fill="#D5A065" />
<rect x="3" y="0" width="1" height="1" fill="#D7A265" />
<rect x="4" y="0" width="1" height="1" fill="#C28748" />
<rect x="5" y="0" width="1" height="1" fill="#C28748" />
<rect x="6" y="0" width="1" height="1" fill="#CA9459" />
<rect x="7" y="0" width="1" height="1" fill="#D2A766" />
<rect x="8" y="0" width="1" height="1" fill="#C28748" />
<rect x="9" y="0" width="1" height="1" fill="#C28748" />
<rect x="10" y="0" width="1" height="1" fill="#CA9459" />
<rect x="11" y="0" width="1" height="1" fill="#CA9459" />
<rect x="12" y="0" width="1" height="1" fill="#CA9459" />
<rect x="13" y="0" width="1" height="1" fill="#CA9459" />
<rect x="14" y="0" width="1" height="1" fill="#D6A365" />
<rect x="15" y="0" width="1" height="1" fill="#AC7749" />
<rect x="0" y="1" width="1" height="1" fill="#D1A161" />
<rect x="1" y="1" width="1" height="1" fill="#C18745" />
<rect x="2" y="1" width="1" height="1" fill="#C38849" />
<rect x="3" y="1" width="1" height="1" fill="#C78D50" />
<rect x="4" y="1" width="1" height="1" fill="#C08B52" />
<rect x="5" y="1" width="1" height="1" fill="#C68E4F" />
<rect x="6" y="1" width="1" height="1" fill="#C48C4D" />
<rect x="7" y="1" width="1" height="1" fill="#C68E51" />
<rect x="8" y="1" width="1" height="1" fill="#C79555" />
<rect x="9" y="1" width="1" height="1" fill="#C69555" />
<rect x="10" y="1" width="1" height="1" fill="#C59352" />
<rect x="11" y="1" width="1" height="1" fill="#C68E51" />
<rect x="12" y="1" width="1" height="1" fill="#B9874E" />
<rect x="13" y="1" width="1" height="1" fill="#C28748" />
<rect x="14" y="1" width="1" height="1" fill="#C18746" />
<rect x="15" y="1" width="1" height="1" fill="#C59255" />
<rect x="0" y="2" width="1" height="1" fill="#C2894A" />
<rect x="1" y="2" width="1" height="1" fill="#C38849" />
<rect x="2" y="2" width="1" height="1" fill="#C68E51" />
<rect x="3" y="2" width="1" height="1" fill="#C68E50" />
<rect x="4" y="2" width="1" height="1" fill="#CC9656" />
<rect x="5" y="2" width="1" height="1" fill="#CA9459" />
<rect x="6" y="2" width="1" height="1" fill="#C99559" />
<rect x="7" y="2" width="1" height="1" fill="#C99559" />
<rect x="8" y="2" width="1" height="1" fill="#C99559" />
<rect x="9" y="2" width="1" height="1" fill="#C99559" />
<rect x="10" y="2" width="1" height="1" fill="#C79358" />
<rect x="11" y="2" width="1" height="1" fill="#C69053" />
<rect x="12" y="2" width="1" height="1" fill="#C68E51" />
<rect x="13" y="2" width="1" height="1" fill="#CC9A56" />
<rect x="14" y="2" width="1" height="1" fill="#C38746" />
<rect x="15" y="2" width="1" height="1" fill="#C59255" />
<rect x="0" y="3" width="1" height="1" fill="#C28748" />
<rect x="1" y="3" width="1" height="1" fill="#C58E52" />
<rect x="2" y="3" width="1" height="1" fill="#C69150" />
<rect x="3" y="3" width="1" height="1" fill="#C99559" />
<rect x="4" y="3" width="1" height="1" fill="#C99559" />
<rect x="5" y="3" width="1" height="1" fill="#C99559" />
<rect x="6" y="3" width="1" height="1" fill="#C99559" />
<rect x="7" y="3" width="1" height="1" fill="#C89659" />
<rect x="8" y="3" width="1" height="1" fill="#C9955A" />
<rect x="9" y="3" width="1" height="1" fill="#C79559" />
<rect x="10" y="3" width="1" height="1" fill="#C99559" />
<rect x="11" y="3" width="1" height="1" fill="#CA9459" />
<rect x="12" y="3" width="1" height="1" fill="#CA965A" />
<rect x="13" y="3" width="1" height="1" fill="#C48D4E" />
<rect x="14" y="3" width="1" height="1" fill="#C69052" />
<rect x="15" y="3" width="1" height="1" fill="#AF7B50" />
<rect x="0" y="4" width="1" height="1" fill="#C28849" />
<rect x="1" y="4" width="1" height="1" fill="#C48D51" />
<rect x="2" y="4" width="1" height="1" fill="#BE864E" />
<rect x="3" y="4" width="1" height="1" fill="#CD9D60" />
<rect x="4" y="4" width="1" height="1" fill="#CD9D60" />
<rect x="5" y="4" width="1" height="1" fill="#CB9D5F" />
<rect x="6" y="4" width="1" height="1" fill="#CC9C5F" />
<rect x="7" y="4" width="1" height="1" fill="#CA965A" />
<rect x="8" y="4" width="1" height="1" fill="#CB985C" />
<rect x="9" y="4" width="1" height="1" fill="#C8965A" />
<rect x="10" y="4" width="1" height="1" fill="#C99559" />
<rect x="11" y="4" width="1" height="1" fill="#C99559" />
<rect x="12" y="4" width="1" height="1" fill="#C99559" />
<rect x="13" y="4" width="1" height="1" fill="#CB975B" />
<rect x="14" y="4" width="1" height="1" fill="#C69056" />
<rect x="15" y="4" width="1" height="1" fill="#C59255" />
<rect x="0" y="5" width="1" height="1" fill="#C1914F" />
<rect x="1" y="5" width="1" height="1" fill="#C79657" />
<rect x="2" y="5" width="1" height="1" fill="#CA9759" />
<rect x="3" y="5" width="1" height="1" fill="#D0A063" />
<rect x="4" y="5" width="1" height="1" fill="#CD9D60" />
<rect x="5" y="5" width="1" height="1" fill="#CD9D60" />
<rect x="6" y="5" width="1" height="1" fill="#CC9C5F" />
<rect x="7" y="5" width="1" height="1" fill="#CD9D62" />
<rect x="8" y="5" width="1" height="1" fill="#CF9F62" />
<rect x="9" y="5" width="1" height="1" fill="#CC9C5F" />
<rect x="10" y="5" width="1" height="1" fill="#CC9C5F" />
<rect x="11" y="5" width="1" height="1" fill="#CC9C5F" />
<rect x="12" y="5" width="1" height="1" fill="#CC9D5D" />
<rect x="13" y="5" width="1" height="1" fill="#BD8D54" />
<rect x="14" y="5" width="1" height="1" fill="#C59255" />
<rect x="15" y="5" width="1" height="1" fill="#C59255" />
<rect x="0" y="6" width="1" height="1" fill="#C08748" />
<rect x="1" y="6" width="1" height="1" fill="#C99153" />
<rect x="2" y="6" width="1" height="1" fill="#CB985A" />
<rect x="3" y="6" width="1" height="1" fill="#CC9B5E" />
<rect x="4" y="6" width="1" height="1" fill="#CEA061" />
<rect x="5" y="6" width="1" height="1" fill="#CD9D60" />
<rect x="6" y="6" width="1" height="1" fill="#CD9B5F" />
<rect x="7" y="6" width="1" height="1" fill="#CB9D5F" />
<rect x="8" y="6" width="1" height="1" fill="#C99559" />
<rect x="9" y="6" width="1" height="1" fill="#CB975B" />
<rect x="10" y="6" width="1" height="1" fill="#CB975B" />
<rect x="11" y="6" width="1" height="1" fill="#CC935B" />
<rect x="12" y="6" width="1" height="1" fill="#C99559" />
<rect x="13" y="6" width="1" height="1" fill="#C99559" />
<rect x="14" y="6" width="1" height="1" fill="#C99156" />
<rect x="15" y="6" width="1" height="1" fill="#C59255" />
<rect x="0" y="7" width="1" height="1" fill="#CB9D5F" />
<rect x="1" y="7" width="1" height="1" fill="#C68E51" />
<rect x="2" y="7" width="1" height="1" fill="#BB874E" />
<rect x="3" y="7" width="1" height="1" fill="#C99559" />
<rect x="4" y="7" width="1" height="1" fill="#C99559" />
<rect x="5" y="7" width="1" height="1" fill="#C99559" />
<rect x="6" y="7" width="1" height="1" fill="#C99559" />
<rect x="7" y="7" width="1" height="1" fill="#C99559" />
<rect x="8" y="7" width="1" height="1" fill="#C59258" />
<rect x="9" y="7" width="1" height="1" fill="#C99559" />
<rect x="10" y="7" width="1" height="1" fill="#C99559" />
<rect x="11" y="7" width="1" height="1" fill="#CB9A5D" />
<rect x="12" y="7" width="1" height="1" fill="#C99559" />
<rect x="13" y="7" width="1" height="1" fill="#C99559" />
<rect x="14" y="7" width="1" height="1" fill="#C89352" />
<rect x="15" y="7" width="1" height="1" fill="#C59255" />
<rect x="0" y="8" width="1" height="1" fill="#CB9D5F" />
<rect x="1" y="8" width="1" height="1" fill="#CA9553" />
<rect x="2" y="8" width="1" height="1" fill="#C99559" />
<rect x="3" y="8" width="1" height="1" fill="#C99559" />
<rect x="4" y="8" width="1" height="1" fill="#C99559" />
<rect x="5" y="8" width="1" height="1" fill="#C89459" />
<rect x="6" y="8" width="1" height="1" fill="#C99A58" />
<rect x="7" y="8" width="1" height="1" fill="#C99559" />
<rect x="8" y="8" width="1" height="1" fill="#D1A161" />
<rect x="9" y="8" width="1" height="1" fill="#C89656" />
<rect x="10" y="8" width="1" height="1" fill="#C99658" />
<rect x="11" y="8" width="1" height="1" fill="#C99559" />
<rect x="12" y="8" width="1" height="1" fill="#CA9459" />
<rect x="13" y="8" width="1" height="1" fill="#C8955B" />
<rect x="14" y="8" width="1" height="1" fill="#BF8C4B" />
<rect x="15" y="8" width="1" height="1" fill="#AD7A47" />
<rect x="0" y="9" width="1" height="1" fill="#C18748" />
<rect x="1" y="9" width="1" height="1" fill="#C68E51" />
<rect x="2" y="9" width="1" height="1" fill="#D4A162" />
<rect x="3" y="9" width="1" height="1" fill="#C99559" />
<rect x="4" y="9" width="1" height="1" fill="#C99559" />
<rect x="5" y="9" width="1" height="1" fill="#C99559" />
<rect x="6" y="9" width="1" height="1" fill="#C99559" />
<rect x="7" y="9" width="1" height="1" fill="#CA955B" />
<rect x="8" y="9" width="1" height="1" fill="#C99559" />
<rect x="9" y="9" width="1" height="1" fill="#C99559" />
<rect x="10" y="9" width="1" height="1" fill="#C99557" />
<rect x="11" y="9" width="1" height="1" fill="#C79858" />
<rect x="12" y="9" width="1" height="1" fill="#C99559" />
<rect x="13" y="9" width="1" height="1" fill="#C99559" />
<rect x="14" y="9" width="1" height="1" fill="#C68E51" />
<rect x="15" y="9" width="1" height="1" fill="#C48F51" />
<rect x="0" y="10" width="1" height="1" fill="#C18748" />
<rect x="1" y="10" width="1" height="1" fill="#C68E51" />
<rect x="2" y="10" width="1" height="1" fill="#C68E51" />
<rect x="3" y="10" width="1" height="1" fill="#C99559" />
<rect x="4" y="10" width="1" height="1" fill="#C9955B" />
<rect x="5" y="10" width="1" height="1" fill="#C99559" />
<rect x="6" y="10" width="1" height="1" fill="#CC995D" />
<rect x="7" y="10" width="1" height="1" fill="#CA9A5D" />
<rect x="8" y="10" width="1" height="1" fill="#CC9C5F" />
<rect x="9" y="10" width="1" height="1" fill="#CC9C5F" />
<rect x="10" y="10" width="1" height="1" fill="#D3A563" />
<rect x="11" y="10" width="1" height="1" fill="#CC9C5F" />
<rect x="12" y="10" width="1" height="1" fill="#CC9B5E" />
<rect x="13" y="10" width="1" height="1" fill="#C9975B" />
<rect x="14" y="10" width="1" height="1" fill="#C99253" />
<rect x="15" y="10" width="1" height="1" fill="#C48F51" />
<rect x="0" y="11" width="1" height="1" fill="#CD9955" />
<rect x="1" y="11" width="1" height="1" fill="#C48F51" />
<rect x="2" y="11" width="1" height="1" fill="#C68E51" />
<rect x="3" y="11" width="1" height="1" fill="#C69659" />
<rect x="4" y="11" width="1" height="1" fill="#CB9A5D" />
<rect x="5" y="11" width="1" height="1" fill="#CC9C5F" />
<rect x="6" y="11" width="1" height="1" fill="#D4A563" />
<rect x="7" y="11" width="1" height="1" fill="#CC9C5F" />
<rect x="8" y="11" width="1" height="1" fill="#CC9C62" />
<rect x="9" y="11" width="1" height="1" fill="#CC9D5F" />
<rect x="10" y="11" width="1" height="1" fill="#CC9C5F" />
<rect x="11" y="11" width="1" height="1" fill="#CC9C5F" />
<rect x="12" y="11" width="1" height="1" fill="#CB9D5F" />
<rect x="13" y="11" width="1" height="1" fill="#CA9759" />
<rect x="14" y="11" width="1" height="1" fill="#C79657" />
<rect x="15" y="11" width="1" height="1" fill="#C48F51" />
<rect x="0" y="12" width="1" height="1" fill="#C18E4D" />
<rect x="1" y="12" width="1" height="1" fill="#C79657" />
<rect x="2" y="12" width="1" height="1" fill="#C89657" />
<rect x="3" y="12" width="1" height="1" fill="#C79657" />
<rect x="4" y="12" width="1" height="1" fill="#C89559" />
<rect x="5" y="12" width="1" height="1" fill="#CC9D5F" />
<rect x="6" y="12" width="1" height="1" fill="#CC9C5F" />
<rect x="7" y="12" width="1" height="1" fill="#C79558" />
<rect x="8" y="12" width="1" height="1" fill="#C99559" />
<rect x="9" y="12" width="1" height="1" fill="#C99559" />
<rect x="10" y="12" width="1" height="1" fill="#C99559" />
<rect x="11" y="12" width="1" height="1" fill="#C89659" />
<rect x="12" y="12" width="1" height="1" fill="#C48F53" />
<rect x="13" y="12" width="1" height="1" fill="#C48F53" />
<rect x="14" y="12" width="1" height="1" fill="#C48F53" />
<rect x="15" y="12" width="1" height="1" fill="#C48F51" />
<rect x="0" y="13" width="1" height="1" fill="#BE8749" />
<rect x="1" y="13" width="1" height="1" fill="#BE864E" />
<rect x="2" y="13" width="1" height="1" fill="#CD9D60" />
<rect x="3" y="13" width="1" height="1" fill="#CC9C5F" />
<rect x="4" y="13" width="1" height="1" fill="#CB9D5F" />
<rect x="5" y="13" width="1" height="1" fill="#CC9C5F" />
<rect x="6" y="13" width="1" height="1" fill="#CA965A" />
<rect x="7" y="13" width="1" height="1" fill="#CB985C" />
<rect x="8" y="13" width="1" height="1" fill="#C8965A" />
<rect x="9" y="13" width="1" height="1" fill="#C99559" />
<rect x="10" y="13" width="1" height="1" fill="#C99559" />
<rect x="11" y="13" width="1" height="1" fill="#C99559" />
<rect x="12" y="13" width="1" height="1" fill="#CB975B" />
<rect x="13" y="13" width="1" height="1" fill="#C69056" />
<rect x="14" y="13" width="1" height="1" fill="#C59255" />
<rect x="15" y="13" width="1" height="1" fill="#AE7648" />
<rect x="0" y="14" width="1" height="1" fill="#C28948" />
<rect x="1" y="14" width="1" height="1" fill="#CA9759" />
<rect x="2" y="14" width="1" height="1" fill="#D0A063" />
<rect x="3" y="14" width="1" height="1" fill="#CA9E5F" />
<rect x="4" y="14" width="1" height="1" fill="#C99E5F" />
<rect x="5" y="14" width="1" height="1" fill="#CC9C5F" />
<rect x="6" y="14" width="1" height="1" fill="#CD9D62" />
<rect x="7" y="14" width="1" height="1" fill="#CF9F62" />
<rect x="8" y="14" width="1" height="1" fill="#CC9C5F" />
<rect x="9" y="14" width="1" height="1" fill="#CC9C5F" />
<rect x="10" y="14" width="1" height="1" fill="#CC9C5F" />
<rect x="11" y="14" width="1" height="1" fill="#CC9D5D" />
<rect x="12" y="14" width="1" height="1" fill="#BD8D54" />
<rect x="13" y="14" width="1" height="1" fill="#C59255" />
<rect x="14" y="14" width="1" height="1" fill="#C59255" />
<rect x="15" y="14" width="1" height="1" fill="#C48F51" />
<rect x="0" y="15" width="1" height="1" fill="#AC7744" />
<rect x="1" y="15" width="1" height="1" fill="#CB985A" />
<rect x="2" y="15" width="1" height="1" fill="#CC9B5E" />
<rect x="3" y="15" width="1" height="1" fill="#CEA061" />
<rect x="4" y="15" width="1" height="1" fill="#CB9D5F" />
<rect x="5" y="15" width="1" height="1" fill="#CD9B5F" />
<rect x="6" y="15" width="1" height="1" fill="#CB9D5F" />
<rect x="7" y="15" width="1" height="1" fill="#C99559" />
<rect x="8" y="15" width="1" height="1" fill="#CB975B" />
<rect x="9" y="15" width="1" height="1" fill="#CB975B" />
<rect x="10" y="15" width="1" height="1" fill="#CC935B" />
<rect x="11" y="15" width="1" height="1" fill="#C99559" />
<rect x="12" y="15" width="1" height="1" fill="#C99559" />
<rect x="13" y="15" width="1" height="1" fill="#C99156" />
<rect x="14" y="15" width="1" height="1" fill="#C59255" />
<rect x="15" y="15" width="1" height="1" fill="#AE7648" />
</svg>